<svg width="1441" height="1561" viewBox="0 0 1441 1561" fill="none" xmlns="http://www.w3.org/2000/svg">
<path d="M1072 938.5L718.5 729L359 938L724.5 1151L1072 938.5Z" fill="#8855C4"/>
<path d="M1072 938.5L718 729.5V313.5L1072 513.258V938.5Z" fill="#2B0D4F"/>
<path d="M718 729.5V313.5L359 508.836V938L718 729.5Z" fill="#4B207A"/>
<path d="M1270 420C1270.17 354.667 1270.4 223 1270 219L1441 311V515L1270 420Z" fill="#4B207A"/>
<path d="M1264 1026L1263 830L1439 934L1264 1026Z" fill="#2B0D4F"/>
<path d="M910 622L897 0L1130 121V496L1439 680V934L910 622Z" fill="#6F389F"/>
<path d="M901.5 203L897 0L727 100.5L901.5 203Z" fill="#2B0D4F"/>
<path d="M4 532V327L183 227.879V428L4 532Z" fill="#4B207A"/>
<path d="M176.5 1034L2 934L176.5 836.5V1034Z" fill="#2B0D4F"/>
<path d="M545 200L544 0L718 100.5L545 200Z" fill="#2B0D4F"/>
<path d="M547 630L2 934L0.0886841 673L312 490V132L544 0L547 630Z" fill="#683B9B"/>
<path d="M720.5 1357L550 1457L716 1561L890 1457L720.5 1357Z" fill="#4B207A"/>
<path d="M1260 1034L1264 1238L1091 1141L1260 1034Z" fill="#2B0D4F"/>
<path d="M177 1242L181 1043L355 1141.5L177 1242Z" fill="#2B0D4F"/>
<path d="M415 1379.12L722.5 1197L1034.06 1380L1264 1238L722.5 934L177 1242L415 1379.12Z" fill="#6F389F"/>
</svg>
